<mxfile host="app.diagrams.net" modified="2021-03-21T20:05:57.685Z" agent="5.0 (Windows NT 10.0; Win64; x64) AppleWebKit/537.36 (KHTML, like Gecko) Chrome/89.0.4389.90 Safari/537.36" etag="StKdT2xFsvdNFyTH4itR" version="14.4.9" type="github">
  <diagram id="kgpKYQtTHZ0yAKxKKP6v" name="Page-1">
    <mxGraphModel dx="1021" dy="534" grid="1" gridSize="10" guides="1" tooltips="1" connect="1" arrows="1" fold="1" page="1" pageScale="1" pageWidth="850" pageHeight="1100" math="0" shadow="0">
      <root>
        <mxCell id="0" />
        <mxCell id="1" parent="0" />
        <mxCell id="aCHnfyv8PlhnQlmvMtqF-79" value="" style="rounded=0;whiteSpace=wrap;html=1;fontSize=12;align=center;fillColor=#dae8fc;strokeColor=#6c8ebf;" vertex="1" parent="1">
          <mxGeometry x="30" y="243" width="560" height="430" as="geometry" />
        </mxCell>
        <mxCell id="aCHnfyv8PlhnQlmvMtqF-12" value="User Interface" style="shape=umlFrame;whiteSpace=wrap;html=1;fillColor=#dae8fc;strokeColor=#6c8ebf;gradientColor=#ffffff;swimlaneFillColor=#E6FFCC;" vertex="1" parent="1">
          <mxGeometry x="680" y="199" width="140" height="80" as="geometry" />
        </mxCell>
        <mxCell id="aCHnfyv8PlhnQlmvMtqF-6" value="Index Builder" style="shape=step;perimeter=stepPerimeter;fixedSize=1;points=[];align=center;" vertex="1" parent="1">
          <mxGeometry x="425" y="115.5" width="132" height="67" as="geometry" />
        </mxCell>
        <mxCell id="aCHnfyv8PlhnQlmvMtqF-19" style="edgeStyle=orthogonalEdgeStyle;rounded=0;orthogonalLoop=1;jettySize=auto;html=1;entryX=0;entryY=0.5;entryDx=0;entryDy=0;startArrow=none;startFill=0;" edge="1" parent="1" source="aCHnfyv8PlhnQlmvMtqF-5" target="aCHnfyv8PlhnQlmvMtqF-17">
          <mxGeometry relative="1" as="geometry" />
        </mxCell>
        <mxCell id="aCHnfyv8PlhnQlmvMtqF-82" style="edgeStyle=orthogonalEdgeStyle;rounded=0;orthogonalLoop=1;jettySize=auto;html=1;dashed=1;startArrow=none;startFill=0;fontSize=24;" edge="1" parent="1" source="aCHnfyv8PlhnQlmvMtqF-5" target="aCHnfyv8PlhnQlmvMtqF-79">
          <mxGeometry relative="1" as="geometry" />
        </mxCell>
        <mxCell id="aCHnfyv8PlhnQlmvMtqF-5" value="Web Crawler" style="shape=step;perimeter=stepPerimeter;fixedSize=1;points=[];fillColor=#dae8fc;strokeColor=#6c8ebf;fontStyle=1;fontSize=16;" vertex="1" parent="1">
          <mxGeometry x="110" y="119" width="140" height="63.5" as="geometry" />
        </mxCell>
        <mxCell id="aCHnfyv8PlhnQlmvMtqF-21" style="edgeStyle=orthogonalEdgeStyle;rounded=0;orthogonalLoop=1;jettySize=auto;html=1;entryX=0.502;entryY=-0.018;entryDx=0;entryDy=0;entryPerimeter=0;startArrow=none;startFill=0;" edge="1" parent="1" source="aCHnfyv8PlhnQlmvMtqF-7" target="aCHnfyv8PlhnQlmvMtqF-12">
          <mxGeometry relative="1" as="geometry" />
        </mxCell>
        <mxCell id="aCHnfyv8PlhnQlmvMtqF-7" value="Query Processor" style="shape=step;perimeter=stepPerimeter;fixedSize=1;points=[];align=center;fontSize=12;" vertex="1" parent="1">
          <mxGeometry x="540" y="115.5" width="132" height="67" as="geometry" />
        </mxCell>
        <mxCell id="aCHnfyv8PlhnQlmvMtqF-20" style="edgeStyle=orthogonalEdgeStyle;rounded=0;orthogonalLoop=1;jettySize=auto;html=1;startArrow=classic;startFill=1;" edge="1" parent="1" source="aCHnfyv8PlhnQlmvMtqF-17" target="aCHnfyv8PlhnQlmvMtqF-6">
          <mxGeometry relative="1" as="geometry" />
        </mxCell>
        <mxCell id="aCHnfyv8PlhnQlmvMtqF-17" value="Disk" style="shape=datastore;whiteSpace=wrap;html=1;gradientColor=#ffffff;" vertex="1" parent="1">
          <mxGeometry x="340" y="119" width="40" height="60" as="geometry" />
        </mxCell>
        <mxCell id="aCHnfyv8PlhnQlmvMtqF-22" value="Save crawled data on disk" style="text;html=1;strokeColor=none;fillColor=none;align=center;verticalAlign=middle;whiteSpace=wrap;rounded=0;" vertex="1" parent="1">
          <mxGeometry x="250" y="159" width="80" height="20" as="geometry" />
        </mxCell>
        <mxCell id="aCHnfyv8PlhnQlmvMtqF-30" style="edgeStyle=orthogonalEdgeStyle;rounded=0;orthogonalLoop=1;jettySize=auto;html=1;entryX=0.09;entryY=0.432;entryDx=0;entryDy=0;entryPerimeter=0;startArrow=none;startFill=0;" edge="1" parent="1" target="aCHnfyv8PlhnQlmvMtqF-5">
          <mxGeometry relative="1" as="geometry">
            <mxPoint x="79.75" y="148.94117647058806" as="sourcePoint" />
          </mxGeometry>
        </mxCell>
        <mxCell id="aCHnfyv8PlhnQlmvMtqF-24" value="Scheduler&lt;br&gt;Execute once &lt;br&gt;a week" style="shape=image;html=1;verticalAlign=top;verticalLabelPosition=bottom;labelBackgroundColor=#ffffff;imageAspect=0;aspect=fixed;image=https://cdn0.iconfinder.com/data/icons/simpline-mix/64/simpline_26-128.png;gradientColor=#ffffff;" vertex="1" parent="1">
          <mxGeometry x="10" y="108.13" width="69.75" height="69.75" as="geometry" />
        </mxCell>
        <mxCell id="aCHnfyv8PlhnQlmvMtqF-50" style="edgeStyle=orthogonalEdgeStyle;rounded=0;orthogonalLoop=1;jettySize=auto;html=1;entryX=0.5;entryY=0;entryDx=0;entryDy=0;startArrow=none;startFill=0;fontSize=12;" edge="1" parent="1" source="aCHnfyv8PlhnQlmvMtqF-48" target="aCHnfyv8PlhnQlmvMtqF-49">
          <mxGeometry relative="1" as="geometry" />
        </mxCell>
        <mxCell id="aCHnfyv8PlhnQlmvMtqF-48" value="Seed URL for crawl" style="strokeWidth=2;html=1;shape=mxgraph.flowchart.start_1;whiteSpace=wrap;gradientColor=#ffffff;fontSize=12;align=center;" vertex="1" parent="1">
          <mxGeometry x="40" y="269" width="120" height="60" as="geometry" />
        </mxCell>
        <mxCell id="aCHnfyv8PlhnQlmvMtqF-52" style="edgeStyle=orthogonalEdgeStyle;rounded=0;orthogonalLoop=1;jettySize=auto;html=1;entryX=0.5;entryY=0;entryDx=0;entryDy=0;entryPerimeter=0;startArrow=none;startFill=0;fontSize=12;" edge="1" parent="1" source="aCHnfyv8PlhnQlmvMtqF-49" target="aCHnfyv8PlhnQlmvMtqF-51">
          <mxGeometry relative="1" as="geometry" />
        </mxCell>
        <mxCell id="aCHnfyv8PlhnQlmvMtqF-49" value="Extract CU members profile information and links of their profile pages" style="rounded=1;whiteSpace=wrap;html=1;absoluteArcSize=1;arcSize=14;strokeWidth=2;gradientColor=#ffffff;fontSize=12;align=center;" vertex="1" parent="1">
          <mxGeometry x="40" y="369" width="120" height="80" as="geometry" />
        </mxCell>
        <mxCell id="aCHnfyv8PlhnQlmvMtqF-53" style="edgeStyle=orthogonalEdgeStyle;rounded=0;orthogonalLoop=1;jettySize=auto;html=1;startArrow=none;startFill=0;fontSize=12;entryX=1;entryY=0.5;entryDx=0;entryDy=0;exitX=1;exitY=0.5;exitDx=0;exitDy=0;exitPerimeter=0;" edge="1" parent="1" source="aCHnfyv8PlhnQlmvMtqF-51" target="aCHnfyv8PlhnQlmvMtqF-49">
          <mxGeometry relative="1" as="geometry">
            <mxPoint x="200" y="409" as="targetPoint" />
          </mxGeometry>
        </mxCell>
        <mxCell id="aCHnfyv8PlhnQlmvMtqF-57" style="edgeStyle=orthogonalEdgeStyle;rounded=0;orthogonalLoop=1;jettySize=auto;html=1;entryX=0.5;entryY=0;entryDx=0;entryDy=0;entryPerimeter=0;startArrow=none;startFill=0;fontSize=12;" edge="1" parent="1" source="aCHnfyv8PlhnQlmvMtqF-51" target="aCHnfyv8PlhnQlmvMtqF-56">
          <mxGeometry relative="1" as="geometry" />
        </mxCell>
        <mxCell id="aCHnfyv8PlhnQlmvMtqF-51" value="Are all the profile extracted?" style="strokeWidth=2;html=1;shape=mxgraph.flowchart.decision;whiteSpace=wrap;gradientColor=#ffffff;fontSize=12;align=center;" vertex="1" parent="1">
          <mxGeometry x="40" y="479" width="120" height="70" as="geometry" />
        </mxCell>
        <mxCell id="aCHnfyv8PlhnQlmvMtqF-55" value="No, Go to next page" style="text;html=1;strokeColor=#d6b656;fillColor=#fff2cc;align=center;verticalAlign=middle;whiteSpace=wrap;rounded=0;fontSize=12;gradientColor=#ffd966;" vertex="1" parent="1">
          <mxGeometry x="182" y="449" width="60" height="30" as="geometry" />
        </mxCell>
        <mxCell id="aCHnfyv8PlhnQlmvMtqF-62" style="edgeStyle=orthogonalEdgeStyle;rounded=0;orthogonalLoop=1;jettySize=auto;html=1;entryX=0;entryY=0.5;entryDx=0;entryDy=0;entryPerimeter=0;dashed=1;startArrow=none;startFill=0;fontSize=12;" edge="1" parent="1" source="aCHnfyv8PlhnQlmvMtqF-56" target="aCHnfyv8PlhnQlmvMtqF-61">
          <mxGeometry relative="1" as="geometry">
            <Array as="points">
              <mxPoint x="290" y="619" />
              <mxPoint x="290" y="299" />
            </Array>
          </mxGeometry>
        </mxCell>
        <mxCell id="aCHnfyv8PlhnQlmvMtqF-56" value="Store data into&lt;br&gt;file" style="strokeWidth=2;html=1;shape=mxgraph.flowchart.stored_data;whiteSpace=wrap;gradientColor=#ffffff;fontSize=12;align=center;" vertex="1" parent="1">
          <mxGeometry x="50" y="589" width="100" height="60" as="geometry" />
        </mxCell>
        <mxCell id="aCHnfyv8PlhnQlmvMtqF-58" value="Yes" style="text;html=1;strokeColor=#82b366;fillColor=#d5e8d4;align=center;verticalAlign=middle;whiteSpace=wrap;rounded=0;fontSize=12;gradientColor=#97d077;" vertex="1" parent="1">
          <mxGeometry x="103" y="559" width="40" height="20" as="geometry" />
        </mxCell>
        <mxCell id="aCHnfyv8PlhnQlmvMtqF-59" value="Name&#xa;Profile Link&#xa;Designation&#xa;Interests&#xa;Citations&#xa;" style="text;fillColor=#f5f5f5;align=left;verticalAlign=top;spacingLeft=4;spacingRight=4;overflow=hidden;rotatable=0;points=[[0,0.5],[1,0.5]];portConstraint=eastwest;fontSize=12;gradientColor=#b3b3b3;strokeColor=#666666;" vertex="1" parent="1">
          <mxGeometry x="180" y="319" width="100" height="80" as="geometry" />
        </mxCell>
        <mxCell id="aCHnfyv8PlhnQlmvMtqF-60" value="" style="endArrow=none;dashed=1;html=1;strokeWidth=2;fontSize=12;entryX=0;entryY=0.5;entryDx=0;entryDy=0;" edge="1" parent="1" target="aCHnfyv8PlhnQlmvMtqF-59">
          <mxGeometry width="50" height="50" relative="1" as="geometry">
            <mxPoint x="160" y="369" as="sourcePoint" />
            <mxPoint x="210" y="319" as="targetPoint" />
          </mxGeometry>
        </mxCell>
        <mxCell id="aCHnfyv8PlhnQlmvMtqF-66" style="edgeStyle=orthogonalEdgeStyle;rounded=0;orthogonalLoop=1;jettySize=auto;html=1;entryX=0.421;entryY=-0.028;entryDx=0;entryDy=0;entryPerimeter=0;dashed=1;startArrow=none;startFill=0;fontSize=12;" edge="1" parent="1" source="aCHnfyv8PlhnQlmvMtqF-61" target="aCHnfyv8PlhnQlmvMtqF-64">
          <mxGeometry relative="1" as="geometry" />
        </mxCell>
        <mxCell id="aCHnfyv8PlhnQlmvMtqF-61" value="First Profile Link" style="strokeWidth=2;html=1;shape=mxgraph.flowchart.start_2;whiteSpace=wrap;gradientColor=#ffffff;fontSize=12;align=center;" vertex="1" parent="1">
          <mxGeometry x="325" y="269" width="100" height="60" as="geometry" />
        </mxCell>
        <mxCell id="aCHnfyv8PlhnQlmvMtqF-63" value="Read the file,&lt;br&gt;Prepare the queue containing all the profile links" style="text;html=1;strokeColor=none;fillColor=none;align=center;verticalAlign=middle;whiteSpace=wrap;rounded=0;fontSize=12;" vertex="1" parent="1">
          <mxGeometry x="180" y="559" width="108" height="40" as="geometry" />
        </mxCell>
        <mxCell id="aCHnfyv8PlhnQlmvMtqF-71" style="edgeStyle=orthogonalEdgeStyle;rounded=0;orthogonalLoop=1;jettySize=auto;html=1;entryX=0.5;entryY=0;entryDx=0;entryDy=0;entryPerimeter=0;dashed=1;startArrow=none;startFill=0;fontSize=12;" edge="1" parent="1" source="aCHnfyv8PlhnQlmvMtqF-64" target="aCHnfyv8PlhnQlmvMtqF-68">
          <mxGeometry relative="1" as="geometry" />
        </mxCell>
        <mxCell id="aCHnfyv8PlhnQlmvMtqF-64" value="Extract the paper information &lt;br&gt;and links authored" style="rounded=1;whiteSpace=wrap;html=1;absoluteArcSize=1;arcSize=14;strokeWidth=2;gradientColor=#ffffff;fontSize=12;align=center;" vertex="1" parent="1">
          <mxGeometry x="325" y="359" width="120" height="80" as="geometry" />
        </mxCell>
        <mxCell id="aCHnfyv8PlhnQlmvMtqF-65" value="Add unique Id&#xa;Profile Name&#xa;Paper Title&#xa;Paper Title Link&#xa;All the authors&#xa;No. of citations&#xa;Year Published&#xa;" style="text;fillColor=#f5f5f5;align=left;verticalAlign=top;spacingLeft=4;spacingRight=4;overflow=hidden;rotatable=0;points=[[0,0.5],[1,0.5]];portConstraint=eastwest;fontSize=12;gradientColor=#b3b3b3;strokeColor=#666666;" vertex="1" parent="1">
          <mxGeometry x="480" y="309" width="100" height="110" as="geometry" />
        </mxCell>
        <mxCell id="aCHnfyv8PlhnQlmvMtqF-67" value="" style="endArrow=none;dashed=1;html=1;strokeWidth=2;fontSize=12;exitX=0.011;exitY=0.156;exitDx=0;exitDy=0;exitPerimeter=0;" edge="1" parent="1" source="aCHnfyv8PlhnQlmvMtqF-65">
          <mxGeometry width="50" height="50" relative="1" as="geometry">
            <mxPoint x="475" y="339" as="sourcePoint" />
            <mxPoint x="425" y="359" as="targetPoint" />
            <Array as="points" />
          </mxGeometry>
        </mxCell>
        <mxCell id="aCHnfyv8PlhnQlmvMtqF-72" style="edgeStyle=orthogonalEdgeStyle;rounded=0;orthogonalLoop=1;jettySize=auto;html=1;entryX=1;entryY=0.5;entryDx=0;entryDy=0;dashed=1;startArrow=none;startFill=0;fontSize=12;" edge="1" parent="1" source="aCHnfyv8PlhnQlmvMtqF-68" target="aCHnfyv8PlhnQlmvMtqF-64">
          <mxGeometry relative="1" as="geometry">
            <Array as="points">
              <mxPoint x="460" y="509" />
              <mxPoint x="460" y="399" />
            </Array>
          </mxGeometry>
        </mxCell>
        <mxCell id="aCHnfyv8PlhnQlmvMtqF-76" style="edgeStyle=orthogonalEdgeStyle;rounded=0;orthogonalLoop=1;jettySize=auto;html=1;entryX=0.5;entryY=0;entryDx=0;entryDy=0;entryPerimeter=0;dashed=1;startArrow=none;startFill=0;fontSize=12;" edge="1" parent="1" source="aCHnfyv8PlhnQlmvMtqF-68" target="aCHnfyv8PlhnQlmvMtqF-74">
          <mxGeometry relative="1" as="geometry" />
        </mxCell>
        <mxCell id="aCHnfyv8PlhnQlmvMtqF-68" value="All profiles&lt;br&gt;&amp;nbsp;crawled?" style="strokeWidth=2;html=1;shape=mxgraph.flowchart.decision;whiteSpace=wrap;gradientColor=#ffffff;fontSize=12;align=center;" vertex="1" parent="1">
          <mxGeometry x="325" y="469" width="120" height="80" as="geometry" />
        </mxCell>
        <mxCell id="aCHnfyv8PlhnQlmvMtqF-73" value="No" style="text;html=1;align=center;verticalAlign=middle;resizable=0;points=[];autosize=1;fontSize=12;gradientColor=#ffd966;fillColor=#fff2cc;strokeColor=#d6b656;" vertex="1" parent="1">
          <mxGeometry x="425" y="459" width="30" height="20" as="geometry" />
        </mxCell>
        <mxCell id="aCHnfyv8PlhnQlmvMtqF-74" value="Store data into&lt;br&gt;file" style="strokeWidth=2;html=1;shape=mxgraph.flowchart.stored_data;whiteSpace=wrap;gradientColor=#ffffff;fontSize=12;align=center;" vertex="1" parent="1">
          <mxGeometry x="335" y="589" width="100" height="60" as="geometry" />
        </mxCell>
        <mxCell id="aCHnfyv8PlhnQlmvMtqF-77" value="Yes" style="text;html=1;strokeColor=#82b366;fillColor=#d5e8d4;align=center;verticalAlign=middle;whiteSpace=wrap;rounded=0;fontSize=12;gradientColor=#97d077;" vertex="1" parent="1">
          <mxGeometry x="395" y="559" width="40" height="20" as="geometry" />
        </mxCell>
        <mxCell id="aCHnfyv8PlhnQlmvMtqF-78" value="Go To next&lt;br&gt;&amp;nbsp;profile link" style="text;html=1;align=center;verticalAlign=middle;resizable=0;points=[];autosize=1;fontSize=12;gradientColor=#ffd966;fillColor=#fff2cc;strokeColor=#d6b656;" vertex="1" parent="1">
          <mxGeometry x="464" y="449" width="70" height="30" as="geometry" />
        </mxCell>
        <mxCell id="aCHnfyv8PlhnQlmvMtqF-81" value="&lt;h1 style=&quot;font-size: 32px;&quot;&gt;Vertical Search Engine Design&lt;/h1&gt;&lt;p style=&quot;font-size: 32px;&quot;&gt;&lt;br style=&quot;font-size: 32px;&quot;&gt;&lt;/p&gt;" style="text;html=1;strokeColor=none;fillColor=none;spacing=5;spacingTop=-20;whiteSpace=wrap;overflow=hidden;rounded=0;fontSize=32;align=center;verticalAlign=middle;" vertex="1" parent="1">
          <mxGeometry x="170" y="20" width="520" height="60" as="geometry" />
        </mxCell>
        <mxCell id="aCHnfyv8PlhnQlmvMtqF-85" value="User" style="outlineConnect=0;fontColor=#232F3E;gradientColor=none;strokeColor=#232F3E;fillColor=#ffffff;dashed=0;verticalLabelPosition=bottom;verticalAlign=top;align=center;html=1;fontSize=12;fontStyle=0;aspect=fixed;shape=mxgraph.aws4.resourceIcon;resIcon=mxgraph.aws4.user;" vertex="1" parent="1">
          <mxGeometry x="760" y="203" width="49" height="49" as="geometry" />
        </mxCell>
      </root>
    </mxGraphModel>
  </diagram>
</mxfile>
